<?xml version="1.0" encoding="UTF-8"?><svg id="Capa_1" xmlns="http://www.w3.org/2000/svg" viewBox="0 0 138.99 121.82"><defs><style>.cls-1{fill:#dff37a;}</style></defs><path class="cls-1" d="m106.9,121.82c-1.69,0-3.38-.24-5.06-.72-5.42-1.56-12.56-6.28-15.77-19.92-5.72-24.3-1.98-47.64,10.22-66.28-.62-.73-1.26-1.44-1.91-2.13-13.1-13.7-30.07-15.92-44.3-5.8-19.32,13.74-28.92,40.55-29.33,84.24l-20.75-.2C.48,60.2,12.93,27.93,38.05,10.06,60.6-5.97,89.26-2.6,109.38,18.44c.21.22.42.44.62.66,7.04-6.11,14.91-10.2,23.95-12.47l5.04,20.13c-6.63,1.66-12.07,4.71-17.14,9.61l-.02.02c8.33,16.81,11.33,37.7,8.09,59.25-1.19,7.93-5.26,18.19-13.09,23.21-3.06,1.96-6.47,2.97-9.93,2.97Zm.93-64.08c-4.26,11.55-4.85,24.71-1.56,38.68.28,1.2.59,2.16.88,2.91.89-1.62,1.84-4.03,2.25-6.79,1.86-12.34,1.25-24.28-1.57-34.81h0Z"/></svg>